<?xml version="1.0" encoding="UTF-8" standalone="no"?>
<svg
   xmlns:dc="http://purl.org/dc/elements/1.1/"
   xmlns:cc="http://creativecommons.org/ns#"
   xmlns:rdf="http://www.w3.org/1999/02/22-rdf-syntax-ns#"
   xmlns:svg="http://www.w3.org/2000/svg"
   xmlns="http://www.w3.org/2000/svg"
   viewBox="0 0 3333.3333 3333.3333"
   height="3333.3333"
   width="3333.3333"
   xml:space="preserve"
   id="svg2"
   version="1.1"><metadata
     id="metadata8"><rdf:RDF><cc:Work
         rdf:about=""><dc:format>image/svg+xml</dc:format><dc:type
           rdf:resource="http://purl.org/dc/dcmitype/StillImage" /></cc:Work></rdf:RDF></metadata><defs
     id="defs6"><clipPath
       id="clipPath18"
       clipPathUnits="userSpaceOnUse"><path
         id="path16"
         d="M 0,2500 H 2500 V 0 H 0 Z" /></clipPath></defs><g
     transform="matrix(1.3333333,0,0,-1.3333333,0,3333.3333)"
     id="g10"><g
       id="g12"><g
         clip-path="url(#clipPath18)"
         id="g14"><g
           transform="translate(780.9502,2380.8003)"
           id="g20"><path
             id="path22"
             style="fill:#040606;fill-opacity:1;fill-rule:nonzero;stroke:none"
             d="m 0,0 c -121.121,-5.514 -203.829,-24.721 -276.152,-52.841 -74.805,-29.04 -138.215,-68.005 -201.532,-131.23 -63.226,-63.225 -102.19,-126.635 -131.23,-201.532 -28.121,-72.323 -47.327,-155.031 -52.841,-276.152 -5.606,-121.305 -6.892,-160.085 -6.892,-469.045 0,-308.96 1.286,-347.741 6.892,-469.045 5.514,-121.121 24.72,-203.829 52.841,-276.153 29.04,-74.804 67.913,-138.306 131.23,-201.532 63.226,-63.225 126.635,-102.097 201.532,-131.229 72.415,-28.121 155.031,-47.327 276.152,-52.841 121.396,-5.514 160.085,-6.893 469.045,-6.893 309.052,0 347.741,1.286 469.046,6.893 121.121,5.514 203.829,24.72 276.152,52.841 74.805,29.132 138.214,68.004 201.531,131.229 63.226,63.226 102.099,126.728 131.23,201.532 28.121,72.324 47.42,155.032 52.842,276.153 5.513,121.396 6.8,160.085 6.8,469.045 0,308.96 -1.287,347.74 -6.8,469.045 -5.515,121.121 -24.721,203.829 -52.842,276.152 -29.131,74.805 -68.004,138.215 -131.23,201.532 -63.225,63.225 -126.726,102.19 -201.439,131.23 C 1141.92,-24.721 1059.212,-5.422 938.183,0 816.878,5.514 778.097,6.892 469.137,6.892 160.085,6.892 121.396,5.605 0,0 m 9.374,-2056.852 c -110.921,5.054 -171.206,23.525 -211.273,39.148 -53.117,20.677 -90.979,45.306 -130.862,85.097 -39.792,39.792 -64.512,77.653 -85.097,130.771 -15.623,40.067 -34.095,100.352 -39.149,211.272 -5.514,119.927 -6.617,155.95 -6.617,459.764 0,303.814 1.195,339.745 6.617,459.764 5.054,110.92 23.618,171.113 39.149,211.272 20.676,53.117 45.305,90.979 85.097,130.863 39.791,39.791 77.653,64.512 130.862,85.097 40.067,15.622 100.352,34.094 211.273,39.148 119.926,5.514 155.95,6.617 459.671,6.617 303.813,0 339.746,-1.195 459.764,-6.617 110.92,-5.054 171.113,-23.617 211.273,-39.148 53.116,-20.585 90.979,-45.306 130.862,-85.097 39.791,-39.792 64.42,-77.746 85.097,-130.863 15.623,-40.067 34.095,-100.352 39.148,-211.272 5.514,-120.019 6.618,-155.95 6.618,-459.764 0,-303.722 -1.104,-339.745 -6.618,-459.764 -5.053,-110.92 -23.617,-171.205 -39.148,-211.272 -20.677,-53.118 -45.306,-90.979 -85.097,-130.771 -39.792,-39.791 -77.746,-64.42 -130.862,-85.097 -40.067,-15.623 -100.353,-34.094 -211.273,-39.148 -119.926,-5.515 -155.951,-6.617 -459.764,-6.617 -303.721,0 -339.745,1.102 -459.671,6.617 m 930.463,1533.403 c 0,-75.356 61.111,-136.56 136.559,-136.56 75.357,0 136.56,61.204 136.56,136.56 0,75.356 -61.111,136.468 -136.56,136.468 -75.448,0 -136.559,-61.112 -136.559,-136.468 M -115.148,-1130.8 c 0,-322.653 261.541,-584.194 584.193,-584.194 322.652,0 584.193,261.541 584.193,584.194 0,322.652 -261.541,584.193 -584.193,584.193 -322.652,0 -584.193,-261.541 -584.193,-584.193 m 205.023,0 c 0,209.434 169.736,379.261 379.17,379.261 209.434,0 379.262,-169.827 379.262,-379.261 0,-209.435 -169.828,-379.262 -379.262,-379.262 -209.435,0 -379.17,169.827 -379.17,379.262" /></g></g></g></g></svg>